# xmcd
#
# Track frame offsets: 
#        150
#        20668
#        37985
#        58457
#        81807
#
# Disc length: 1303 seconds
#
# Revision: 0
# Processed by: cddbd v1.5.2PL0 Copyright (c) Steve Scherf et al.
# Submitted via: ExactAudioCopy v1.0b3
#
DISCID=3c051505
DTITLE=The Rolling Stones - ROCKS OFF (SHM)
DYEAR=2012
DGENRE=Blues
TTITLE0=Rocks Off
TTITLE1=Brown Sugar
TTITLE2=Angie
TTITLE3=It's Only Rock And Roll (But I Like It)
TTITLE4=Start Me Up
EXTD=
EXTT0=
EXTT1=
EXTT2=
EXTT3=
EXTT4=
PLAYORDER=
